HIERARCHY
ROOT Hips
{
    OFFSET   0.000000   0.000000   0.000000
    CHANNELS 6 Xposition Yposition Zposition Zrotation Xrotation Yrotation
    JOINT Chest
    {
        OFFSET   0.000000   8.007230   0.000000
        CHANNELS 3 Zrotation Xrotation Yrotation
        JOINT Chest2
        {
            OFFSET   0.000000  22.077100   0.000000
            CHANNELS 3 Zrotation Xrotation Yrotation
            JOINT Neck
            {
                OFFSET   0.000000  23.255100   0.000000
                CHANNELS 3 Zrotation Xrotation Yrotation
                JOINT Head
                {
                    OFFSET   0.000000  14.370100   1.956600
                    CHANNELS 3 Zrotation Xrotation Yrotation
                    End Site
                    {
                        OFFSET   0.000000  19.566000   0.000000
                    }
                }
            }
            JOINT LeftCollar
            {
                OFFSET   3.911900  19.017000  -0.467063
                CHANNELS 3 Zrotation Xrotation Yrotation
                JOINT LeftShoulder
                {
                    OFFSET  10.383700   0.000000   0.000000
                    CHANNELS 3 Zrotation Xrotation Yrotation
                    JOINT LeftElbow
                    {
                        OFFSET  26.662100   0.001193   0.000980
                        CHANNELS 3 Zrotation Xrotation Yrotation
                        JOINT LeftWrist
                        {
                            OFFSET  28.869000  -0.000059  -0.000082
                            CHANNELS 3 Zrotation Xrotation Yrotation
                            JOINT LeftFinger0
                            {
                                OFFSET   2.044650  -2.323450   3.252850
                                CHANNELS 3 Zrotation Xrotation Yrotation
                                JOINT LeftFinger01
                                {
                                    OFFSET   3.088130   0.000000   0.000000
                                    CHANNELS 3 Zrotation Xrotation Yrotation
                                    JOINT LeftFinger02
                                    {
                                        OFFSET   2.639460   0.000000   0.000000
                                        CHANNELS 3 Zrotation Xrotation Yrotation
                                        End Site
                                        {
                                            OFFSET   2.582190   0.000000   0.000000
                                        }
                                    }
                                }
                            }
                            JOINT LeftFinger1
                            {
                                OFFSET   8.364480   0.000000   3.252850
                                CHANNELS 3 Zrotation Xrotation Yrotation
                                JOINT LeftFinger11
                                {
                                    OFFSET   4.646930   0.000000   0.000000
                                    CHANNELS 3 Zrotation Xrotation Yrotation
                                    JOINT LeftFinger12
                                    {
                                        OFFSET   2.323470   0.000000   0.000000
                                        CHANNELS 3 Zrotation Xrotation Yrotation
                                        End Site
                                        {
                                            OFFSET   2.273050   0.000000   0.000000
                                        }
                                    }
                                }
                            }
                            JOINT LeftFinger2
                            {
                                OFFSET   8.364490   0.000016   1.078090
                                CHANNELS 3 Zrotation Xrotation Yrotation
                                JOINT LeftFinger21
                                {
                                    OFFSET   5.111610   0.000000   0.000000
                                    CHANNELS 3 Zrotation Xrotation Yrotation
                                    JOINT LeftFinger22
                                    {
                                        OFFSET   2.788150   0.000016   0.000000
                                        CHANNELS 3 Zrotation Xrotation Yrotation
                                        End Site
                                        {
                                            OFFSET   2.727660   0.000000   0.000000
                                        }
                                    }
                                }
                            }
                            JOINT LeftFinger3
                            {
                                OFFSET   7.899780   0.000015  -1.078090
                                CHANNELS 3 Zrotation Xrotation Yrotation
                                JOINT LeftFinger31
                                {
                                    OFFSET   4.646930   0.000000   0.000000
                                    CHANNELS 3 Zrotation Xrotation Yrotation
                                    JOINT LeftFinger32
                                    {
                                        OFFSET   2.323470   0.000000   0.000000
                                        CHANNELS 3 Zrotation Xrotation Yrotation
                                        End Site
                                        {
                                            OFFSET   2.273050   0.000000   0.000000
                                        }
                                    }
                                }
                            }
                            JOINT LeftFinger4
                            {
                                OFFSET   7.435090   0.000000  -3.252850
                                CHANNELS 3 Zrotation Xrotation Yrotation
                                JOINT LeftFinger41
                                {
                                    OFFSET   3.717550   0.000000   0.000000
                                    CHANNELS 3 Zrotation Xrotation Yrotation
                                    JOINT LeftFinger42
                                    {
                                        OFFSET   1.858770   0.000000   0.000000
                                        CHANNELS 3 Zrotation Xrotation Yrotation
                                        End Site
                                        {
                                            OFFSET   1.818440   0.000000   0.000000
                                        }
                                    }
                                }
                            }
                        }
                    }
                }
            }
            JOINT RightCollar
            {
                OFFSET  -3.911910  19.017000  -0.467062
                CHANNELS 3 Zrotation Xrotation Yrotation
                JOINT RightShoulder
                {
                    OFFSET -10.383700   0.000014   0.000000
                    CHANNELS 3 Zrotation Xrotation Yrotation
                    JOINT RightElbow
                    {
                        OFFSET -26.662100   0.001225   0.001091
                        CHANNELS 3 Zrotation Xrotation Yrotation
                        JOINT RightWrist
                        {
                            OFFSET -28.869000  -0.000020  -0.000085
                            CHANNELS 3 Zrotation Xrotation Yrotation
                            JOINT RightFinger0
                            {
                                OFFSET  -2.044650  -2.323490   3.252850
                                CHANNELS 3 Zrotation Xrotation Yrotation
                                JOINT RightFinger01
                                {
                                    OFFSET  -3.088130   0.000000   0.000000
                                    CHANNELS 3 Zrotation Xrotation Yrotation
                                    JOINT RightFinger02
                                    {
                                        OFFSET  -2.639460   0.000000   0.000000
                                        CHANNELS 3 Zrotation Xrotation Yrotation
                                        End Site
                                        {
                                            OFFSET  -2.582190   0.000000   0.000000
                                        }
                                    }
                                }
                            }
                            JOINT RightFinger1
                            {
                                OFFSET  -8.364480   0.000000   3.252850
                                CHANNELS 3 Zrotation Xrotation Yrotation
                                JOINT RightFinger11
                                {
                                    OFFSET  -4.646930   0.000000   0.000000
                                    CHANNELS 3 Zrotation Xrotation Yrotation
                                    JOINT RightFinger12
                                    {
                                        OFFSET  -2.323470   0.000000   0.000000
                                        CHANNELS 3 Zrotation Xrotation Yrotation
                                        End Site
                                        {
                                            OFFSET  -2.273050   0.000000   0.000000
                                        }
                                    }
                                }
                            }
                            JOINT RightFinger2
                            {
                                OFFSET  -8.364480   0.000000   1.078090
                                CHANNELS 3 Zrotation Xrotation Yrotation
                                JOINT RightFinger21
                                {
                                    OFFSET  -5.111620   0.000000   0.000000
                                    CHANNELS 3 Zrotation Xrotation Yrotation
                                    JOINT RightFinger22
                                    {
                                        OFFSET  -2.788160   0.000000   0.000000
                                        CHANNELS 3 Zrotation Xrotation Yrotation
                                        End Site
                                        {
                                            OFFSET  -2.727660   0.000000   0.000000
                                        }
                                    }
                                }
                            }
                            JOINT RightFinger3
                            {
                                OFFSET  -7.899780   0.000000  -1.078090
                                CHANNELS 3 Zrotation Xrotation Yrotation
                                JOINT RightFinger31
                                {
                                    OFFSET  -4.646930   0.000000   0.000000
                                    CHANNELS 3 Zrotation Xrotation Yrotation
                                    JOINT RightFinger32
                                    {
                                        OFFSET  -2.323470   0.000000   0.000000
                                        CHANNELS 3 Zrotation Xrotation Yrotation
                                        End Site
                                        {
                                            OFFSET  -2.273050   0.000000   0.000000
                                        }
                                    }
                                }
                            }
                            JOINT RightFinger4
                            {
                                OFFSET  -7.435090   0.000000  -3.252850
                                CHANNELS 3 Zrotation Xrotation Yrotation
                                JOINT RightFinger41
                                {
                                    OFFSET  -3.717550   0.000000   0.000000
                                    CHANNELS 3 Zrotation Xrotation Yrotation
                                    JOINT RightFinger42
                                    {
                                        OFFSET  -1.858760   0.000000   0.000000
                                        CHANNELS 3 Zrotation Xrotation Yrotation
                                        End Site
                                        {
                                            OFFSET  -1.818440   0.000000   0.000000
                                        }
                                    }
                                }
                            }
                        }
                    }
                }
            }
        }
    }
    JOINT LeftHip
    {
        OFFSET   9.783030   0.000000   0.000000
        CHANNELS 3 Zrotation Xrotation Yrotation
        JOINT LeftKnee
        {
            OFFSET   0.000063 -41.789100   0.000608
            CHANNELS 3 Zrotation Xrotation Yrotation
            JOINT LeftAnkle
            {
                OFFSET   0.000048 -41.133200  -0.000184
                CHANNELS 3 Zrotation Xrotation Yrotation
                JOINT LeftToe
                {
                    OFFSET   0.000000  -6.358960  14.674500
                    CHANNELS 3 Zrotation Xrotation Yrotation
                    End Site
                    {
                        OFFSET   0.000000   0.000000   3.913200
                    }
                }
            }
        }
    }
    JOINT RightHip
    {
        OFFSET  -9.783030   0.000000   0.000000
        CHANNELS 3 Zrotation Xrotation Yrotation
        JOINT RightKnee
        {
            OFFSET   0.000071 -41.789100   0.001239
            CHANNELS 3 Zrotation Xrotation Yrotation
            JOINT RightAnkle
            {
                OFFSET   0.000037 -41.133200  -0.000166
                CHANNELS 3 Zrotation Xrotation Yrotation
                JOINT RightToe
                {
                    OFFSET   0.000000  -6.358960  14.674500
                    CHANNELS 3 Zrotation Xrotation Yrotation
                    End Site
                    {
                        OFFSET   0.000000   0.000000   3.913200
                    }
                }
            }
        }
    }
}
MOTION
Frames: 5
Frame Time:   0.016667
  1.512770  89.592400  -3.450530  -3.865310  -8.604780  -6.228350   0.548392   5.309000   0.735296   1.034680  10.624400   1.428540   0.921383  -0.765125   0.013992   1.519660  -1.550450   3.712190  -6.743690  -1.063390   1.363810 -72.931400  19.843400  -3.505300  -0.668417  -3.325380 -19.263900  18.663500 -13.940700  11.832400  40.128300  36.814600 -62.354000 -34.887300   0.003826   0.002714 -12.439000   0.001531  -0.000939 -31.227600   6.390920 -10.410600 -26.020800  -0.001346   0.001541 -18.215400  -0.012869   0.000771 -28.476800  -0.551472   1.009900 -35.949500   0.001481   0.005396 -23.950600  -0.000669   0.003803 -28.781500  -0.557074   1.006880 -42.487200  -0.006656  -0.000490 -28.301700  -0.001836  -0.001256 -40.938500  -1.351210   1.557680 -61.423500  -0.009725  -0.003266 -40.915900   0.000344  -0.003698  12.409900   1.233640   6.746720  66.322100  15.384500  -5.129450  -1.894280  -2.379840  15.630000 -10.025900  -3.671050  -2.510060 -39.883100  24.078300  58.639900  22.279100  -0.000163  -0.001116   6.139980  -0.003400   0.000000  29.153100   8.930220  15.551300  24.852200   0.001353   0.001709  17.396500   0.001305   0.001351  28.345600   2.039930   3.775180  35.232400   0.000000   0.006103  23.464800  -0.001305  -0.002730  31.727300   2.258800   3.648560  47.687900  -0.004968  -0.000639  31.769200   0.000829   0.003306  32.943100  -5.183590  -7.937340  49.954500   0.003121  -0.004476  33.269700  -0.000834  -0.003045   2.495640   9.431280   4.718030   1.018160   0.057272   9.197360  -1.326790  -1.253670   5.356350  -0.000000   0.000000   0.000000   4.274980   4.493260  -3.650910  -3.219710   7.600050  -7.129400   1.505430  -6.051530   2.311730  -0.000000   0.000000   0.000000
  1.512940  89.592400  -3.450520  -3.862160  -8.619730  -6.197520   0.548419   5.318650   0.734992   1.034670  10.643700   1.427830   0.921285  -0.774165   0.013975   1.520000  -1.568590   3.705020  -6.743740  -1.066940   1.358810 -72.925600  19.878700  -3.516370  -0.665664  -3.331750 -19.277600  18.667600 -13.940800  11.832400  40.131500  36.815500 -62.348600 -34.886300   0.003845   0.002736 -12.438900   0.001498  -0.000934 -31.225500   6.390940 -10.409400 -26.020800  -0.001339   0.001555 -18.215900  -0.012868   0.000783 -28.476900  -0.551214   1.009530 -35.949800   0.001503   0.005430 -23.951400  -0.000662   0.003831 -28.781500  -0.556809   1.006510 -42.486500  -0.006701  -0.000485 -28.302400  -0.001825  -0.001249 -40.939000  -1.351390   1.557850 -61.423600  -0.009748  -0.003235 -40.916300   0.000328  -0.003679  12.413700   1.226060   6.752240  66.313900  15.397100  -5.129760  -1.885290  -2.386570  15.617700 -10.026700  -3.662370  -2.500220 -39.858400  24.026100  58.603400  22.279100  -0.000120  -0.001126   6.140420  -0.003349  -0.000051  29.166300   8.934700  15.552500  24.863100   0.001341   0.001701  17.404100   0.001304   0.001344  28.345700   2.029160   3.755250  35.228300   0.000000   0.006147  23.462100  -0.001307  -0.002740  31.728700   2.247310   3.629030  47.694700  -0.004988  -0.000650  31.769200   0.000824   0.003309  32.952700  -5.195430  -7.952320  49.971200   0.003117  -0.004538  33.280800  -0.000852  -0.003079   2.500450   9.418060   4.717780   1.016840   0.107026   9.177210  -1.330060  -1.279040   5.341520  -0.000000   0.000000  -0.000000   4.280500   4.489160  -3.650850  -3.224560   7.643460  -7.131240   1.513370  -6.085660   2.285010  -0.000000   0.000000   0.000000
  1.513210  89.592400  -3.450470  -3.856400  -8.643910  -6.143160   0.548411   5.334350   0.734696   1.034520  10.675100   1.427170   0.921188  -0.788440   0.013958   1.520540  -1.597320   3.690150  -6.743800  -1.072660   1.350480 -72.915700  19.940900  -3.534690  -0.662768  -3.347550 -19.299300  18.673600 -13.940800  11.832400  40.135800  36.815800 -62.337800 -34.884600   0.003880   0.002767 -12.438800   0.001429  -0.000909 -31.220600   6.391000 -10.406400 -26.020800  -0.001320   0.001588 -18.216400  -0.012866   0.000813 -28.476900  -0.550955   1.009160 -35.950100   0.001561   0.005515 -23.952200  -0.000646   0.003898 -28.781500  -0.556544   1.006140 -42.484400  -0.006811  -0.000472 -28.303100  -0.001797  -0.001234 -40.939400  -1.351560   1.558020 -61.423800  -0.009801  -0.003157 -40.916800   0.000289  -0.003630  12.423600   1.209090   6.763630  66.297200  15.423000  -5.130400  -1.871590  -2.399620  15.599400 -10.031000  -3.653690  -2.490380 -39.836600  23.969600  58.574200  22.279100   0.000000  -0.001146   6.140870  -0.003250  -0.000151  29.177000   8.944210  15.559700  24.873900   0.001315   0.001681  17.411700   0.001294   0.001330  28.343700   2.009000   3.718300  35.200000   0.000000   0.006254  23.443200  -0.001314  -0.002766  31.731200   2.225340   3.593120  47.701500  -0.005038  -0.000677  31.769200   0.000812   0.003320  32.962300  -5.207270  -7.967300  49.987800   0.003105  -0.004672  33.291900  -0.000891  -0.003156   2.507140   9.404840   4.717520   1.015590   0.156791   9.145620  -1.333640  -1.304440   5.314250  -0.000000   0.000000  -0.000000   4.287240   4.485060  -3.650780  -3.231170   7.698720  -7.139950   1.520270  -6.132130   2.244250  -0.000000   0.000000   0.000000
  1.513430  89.592300  -3.450350  -3.850690  -8.662140  -6.091640   0.548264   5.346250   0.734946   1.033990  10.698900   1.427720   0.921218  -0.797957   0.013959   1.520850  -1.616710   3.672370  -6.743830  -1.076410   1.344120 -72.903000  20.001000  -3.548880  -0.664368  -3.374000 -19.315100  18.676400 -13.940900  11.832200  40.136100  36.812700 -62.326000 -34.882800   0.003916   0.002776 -12.438500   0.001351  -0.000850 -31.215500   6.387780 -10.401800 -26.017300  -0.001294   0.001641 -18.213200  -0.012865   0.000858 -28.476900  -0.551020   1.011300 -35.948600   0.001651   0.005643 -23.947000  -0.000624   0.004002 -28.781500  -0.556611   1.008270 -42.482600  -0.006978  -0.000451 -28.298700  -0.001754  -0.001212 -40.936700  -1.351520   1.557980 -61.423700  -0.009879  -0.003039 -40.914200   0.000229  -0.003554  12.438900   1.187590   6.778660  66.277600  15.453800  -5.136240  -1.862740  -2.414350  15.588500 -10.035600  -3.659510  -2.490810 -39.846900  23.975800  58.624500  22.271400   0.000216  -0.001178   6.136380  -0.003141  -0.000270  29.168400   8.953840  15.579300  24.869300   0.001281   0.001653  17.408500   0.001271   0.001312  28.337300   1.986670   3.678050  35.126000   0.000000   0.006419  23.393900  -0.001331  -0.002812  31.715700   2.199960   3.554700  47.675600  -0.005112  -0.000719  31.752000   0.000792   0.003337  32.932100  -5.198200  -7.962610  49.941300   0.003083  -0.004856  33.260900  -0.000944  -0.003268   2.507650   9.435490   4.718410   1.014980   0.109312   9.124880  -1.329670  -1.278830   5.285690  -0.000000   0.000000  -0.000000   4.289880   4.501910  -3.652600  -3.232530   7.712300  -7.163580   1.516710  -6.145290   2.220550  -0.000000   0.000000   0.000000
  1.513560  89.592200  -3.449670  -3.844970  -8.678590  -6.040180   0.547994   5.357480   0.736606   1.033250  10.721400   1.430930   0.921410  -0.807015   0.013960   1.521240  -1.635190   3.650530  -6.743850  -1.080740   1.337090 -72.887500  20.058500  -3.563260  -0.667266  -3.400860 -19.328900  18.679600 -13.940900  11.832000  40.136900  36.810000 -62.311000 -34.880900   0.003960   0.002794 -12.438400   0.001248  -0.000775 -31.207400   6.380590 -10.395200 -26.008700  -0.001260   0.001706 -18.206100  -0.012861   0.000910 -28.476900  -0.551475   1.016580 -35.940700   0.001763   0.005800 -23.936500  -0.000598   0.004128 -28.781500  -0.557076   1.013520 -42.476300  -0.007180  -0.000427 -28.289200  -0.001702  -0.001186 -40.930300  -1.351210   1.557680 -61.423000  -0.009971  -0.002894 -40.907800   0.000157  -0.003462  12.459100   1.158590   6.793580  66.258500  15.489800  -5.148020  -1.856580  -2.430370  15.581800 -10.052600  -3.672220  -2.493670 -39.864600  24.100200  58.841700  22.263800   0.000458  -0.001210   6.131890  -0.003021  -0.000402  29.155400   8.969770  15.615000  24.862700   0.001236   0.001621  17.403900   0.001243   0.001290  28.328500   1.964800   3.639040  35.027900   0.000000   0.006620  23.328600  -0.001351  -0.002869  31.690200   2.174960   3.517580  47.635500  -0.005204  -0.000771  31.725300   0.000768   0.003360  32.890800  -5.178180  -7.944660  49.876000   0.003056  -0.005051  33.217500  -0.001002  -0.003387   2.506440   9.480020   4.719530   1.013820   0.042329   9.105750  -1.323660  -1.243030   5.256840  -0.000000   0.000000  -0.000000   4.292220   4.530420  -3.656630  -3.230540   7.713820  -7.192010   1.511600  -6.150180   2.199480  -0.000000   0.000000   0.000000
